<svg width="765" height="649" viewBox="0 0 765 649" fill="none" xmlns="http://www.w3.org/2000/svg">
<path d="M8.58307e-05 560L1.71661e-05 457L8.58307e-05 417.5V87C8.58307e-05 62 9.5001 56 26.0001 56H144H338H695C723 56 723 71.5 723 87V479C723 498.5 713 502 695 502H161C74.0001 502 74.0001 535 74.0001 579V609.5C74.0001 623.5 88.0002 675.5 48.0001 630.5C8 585.5 8.58307e-05 573.5 8.58307e-05 560Z" fill="#E4E4E4"/>
<path d="M41.5001 504L41.5 401L41.5001 361.5V31C41.5001 6 51.0001 0 67.5001 0H185.5H379.5H736.5C764.5 0 764.5 15.5 764.5 31V423C764.5 442.5 754.5 446 736.5 446H202.5C115.5 446 115.5 479 115.5 523V553.5C115.5 567.5 129.5 619.5 89.5001 574.5C49.5 529.5 41.5001 517.5 41.5001 504Z" fill="#2B4559"/>
</svg>
